<svg version="1.1" viewBox="0.0 0.0 200.0 50.0" fill="none" stroke="none" stroke-linecap="square" stroke-miterlimit="10" xmlns:xlink="http://www.w3.org/1999/xlink" xmlns="http://www.w3.org/2000/svg"><clipPath id="p.0"><path d="m0 0l200.0 0l0 50.0l-200.0 0l0 -50.0z" clip-rule="nonzero"/></clipPath><g clip-path="url(#p.0)"><path fill="#000000" fill-opacity="0.0" d="m0 0l200.0 0l0 50.0l-200.0 0z" fill-rule="evenodd"/><path fill="#000000" fill-opacity="0.0" d="m0 45.503937c13.055119 0 19.582678 -10.22047 26.110237 -20.440945c6.5275574 -10.220472 13.055119 -20.440945 26.110237 -20.440945" fill-rule="evenodd"/><path stroke="#00ff00" stroke-width="8.0" stroke-linejoin="round" stroke-linecap="butt" d="m0 45.503937c13.055119 0 19.582678 -10.22047 26.110237 -20.440945c6.5275574 -10.220472 13.055119 -20.440945 26.110237 -20.440945" fill-rule="evenodd"/><path fill="#000000" fill-opacity="0.0" d="m102.08137 45.335957c-12.48819 0 -18.732285 -10.173225 -24.97638 -20.346455c-6.244095 -10.173229 -12.48819 -20.346458 -24.97638 -20.346458" fill-rule="evenodd"/><path stroke="#00ff00" stroke-width="8.0" stroke-linejoin="round" stroke-linecap="butt" d="m102.08137 45.335957c-12.48819 0 -18.732285 -10.173225 -24.97638 -20.346455c-6.244095 -10.173229 -12.48819 -20.346458 -24.97638 -20.346458" fill-rule="evenodd"/><path fill="#000000" fill-opacity="0.0" d="m102.08137 45.335957c13.055115 0 19.582672 -10.22047 26.110237 -20.440943c6.5275574 -10.220473 13.055115 -20.440945 26.11023 -20.440945" fill-rule="evenodd"/><path stroke="#00ff00" stroke-width="8.0" stroke-linejoin="round" stroke-linecap="butt" d="m102.08137 45.335957c13.055115 0 19.582672 -10.22047 26.110237 -20.440943c6.5275574 -10.220473 13.055115 -20.440945 26.11023 -20.440945" fill-rule="evenodd"/><path fill="#000000" fill-opacity="0.0" d="m204.16273 45.16798c-12.48819 0 -18.732285 -10.173229 -24.97638 -20.346458c-6.244095 -10.173228 -12.48819 -20.346457 -24.97638 -20.346457" fill-rule="evenodd"/><path stroke="#00ff00" stroke-width="8.0" stroke-linejoin="round" stroke-linecap="butt" d="m204.16273 45.16798c-12.48819 0 -18.732285 -10.173229 -24.97638 -20.346458c-6.244095 -10.173228 -12.48819 -20.346457 -24.97638 -20.346457" fill-rule="evenodd"/></g></svg>