<svg version="1.1" viewBox="0.0 0.0 200.0 50.0" fill="none" stroke="none" stroke-linecap="square" stroke-miterlimit="10" xmlns:xlink="http://www.w3.org/1999/xlink" xmlns="http://www.w3.org/2000/svg"><clipPath id="p.0"><path d="m0 0l200.0 0l0 50.0l-200.0 0l0 -50.0z" clip-rule="nonzero"/></clipPath><g clip-path="url(#p.0)"><path fill="#000000" fill-opacity="0.0" d="m0 0l200.0 0l0 50.0l-200.0 0z" fill-rule="evenodd"/><path fill="#000000" fill-opacity="0.0" d="m0 45.503937c25.598425 0 38.397636 -10.22047 51.19685 -20.440945c12.799213 -10.220472 25.598423 -20.440945 51.19685 -20.440945" fill-rule="evenodd"/><path stroke="#00ffff" stroke-width="8.0" stroke-linejoin="round" stroke-linecap="butt" d="m0 45.503937c25.598425 0 38.397636 -10.22047 51.19685 -20.440945c12.799213 -10.220472 25.598423 -20.440945 51.19685 -20.440945" fill-rule="evenodd"/><path fill="#000000" fill-opacity="0.0" d="m200.15486 45.335957c-24.480316 0 -36.720474 -10.173225 -48.960632 -20.346455c-12.240158 -10.173229 -24.480316 -20.346458 -48.960632 -20.346458" fill-rule="evenodd"/><path stroke="#00ffff" stroke-width="8.0" stroke-linejoin="round" stroke-linecap="butt" d="m200.15486 45.335957c-24.480316 0 -36.720474 -10.173225 -48.960632 -20.346455c-12.240158 -10.173229 -24.480316 -20.346458 -48.960632 -20.346458" fill-rule="evenodd"/></g></svg>