<svg version="1.1" viewBox="0.0 0.0 50.0 50.0" fill="none" stroke="none" stroke-linecap="square" stroke-miterlimit="10" xmlns:xlink="http://www.w3.org/1999/xlink" xmlns="http://www.w3.org/2000/svg"><clipPath id="p.0"><path d="m0 0l50.0 0l0 50.0l-50.0 0l0 -50.0z" clip-rule="nonzero"/></clipPath><g clip-path="url(#p.0)"><path fill="#000000" fill-opacity="0.0" d="m0 0l50.0 0l0 50.0l-50.0 0z" fill-rule="evenodd"/><path fill="#000000" fill-opacity="0.0" d="m1.4750656 45.498688c2.5643044 -0.06824112 10.611986 0.7090988 15.385828 -0.40945053c4.77384 -1.1185455 9.779526 -3.2195969 13.257217 -6.301834c3.4776917 -3.082241 5.754154 -7.690727 7.608925 -12.191603c1.8547668 -4.5008755 2.9330711 -12.344707 3.5196838 -14.813648" fill-rule="evenodd"/><path stroke="#ffffff" stroke-width="8.0" stroke-linejoin="round" stroke-linecap="butt" d="m1.4750656 45.498688c2.5643044 -0.06824112 10.611986 0.7090988 15.385828 -0.40945053c4.77384 -1.1185455 9.779526 -3.2195969 13.257217 -6.301834c3.4776917 -3.082241 5.754154 -7.690727 7.608925 -12.191603c1.8547668 -4.5008755 2.9330711 -12.344707 3.5196838 -14.813648" fill-rule="evenodd"/><path fill="#ffffff" d="m30.360708 14.745024l13.0236225 -14.677165l6.661419 18.393702z" fill-rule="evenodd"/></g></svg>