<svg version="1.1" viewBox="0.0 0.0 50.0 50.0" fill="none" stroke="none" stroke-linecap="square" stroke-miterlimit="10" xmlns:xlink="http://www.w3.org/1999/xlink" xmlns="http://www.w3.org/2000/svg"><clipPath id="p.0"><path d="m0 0l50.0 0l0 50.0l-50.0 0l0 -50.0z" clip-rule="nonzero"/></clipPath><g clip-path="url(#p.0)"><path fill="#000000" fill-opacity="0.0" d="m0 0l50.0 0l0 50.0l-50.0 0z" fill-rule="evenodd"/><path fill="#000000" fill-opacity="0.0" d="m1.144357 4.5003963c3.4505684 0.06824112 15.193351 -0.5590553 20.703411 0.40944862c5.5100613 0.96850395 9.410761 2.755468 12.356955 5.4015746c2.9461937 2.6461067 4.3241463 5.265092 5.3202095 10.475066c0.99606323 5.2099743 0.54680634 17.320646 0.6561699 20.784777" fill-rule="evenodd"/><path stroke="#000000" stroke-width="8.0" stroke-linejoin="round" stroke-linecap="butt" d="m1.144357 4.5003963c3.4505684 0.06824112 15.193351 -0.5590553 20.703411 0.40944862c5.5100613 0.96850395 9.410761 2.755468 12.356955 5.4015746c2.9461937 2.6461067 4.3241463 5.265092 5.3202095 10.475066c0.99606323 5.2099743 0.54680634 17.320646 0.6561699 20.784777" fill-rule="evenodd"/><path fill="#000000" d="m50.000355 33.117825l-10.015747 16.850391l-10.015749 -16.7874z" fill-rule="evenodd"/></g></svg>